<svg width="265" height="142" viewBox="0 0 265 142" fill="none" xmlns="http://www.w3.org/2000/svg">
<path d="M56.5382 34.3273L56.5128 19.9083L57.2628 19.9069L57.2524 14.0018L62.3612 16.9634L62.7373 16.3145L75.2119 23.5461L74.8358 24.1949L87.3103 31.4265L87.6865 30.7776L100.161 38.0092L99.7849 38.6581L112.259 45.8896L112.636 45.2408L125.11 52.4724L124.734 53.1212L137.209 60.3528L137.585 59.7039L150.059 66.9355L149.683 67.5843L154.799 70.5499L149.697 73.4955L150.072 74.145L137.623 81.3325L137.248 80.683L124.799 87.8705L125.174 88.52L112.725 95.7075L112.35 95.058L99.9005 102.246L100.276 102.895L87.8264 110.083L87.4514 109.433L75.0023 116.621L75.3773 117.27L62.9282 124.458L62.5532 123.808L57.4513 126.754L57.4409 120.84L56.6909 120.842L56.6654 106.423L57.4154 106.421L57.39 92.0023L56.64 92.0036L56.6146 77.5845L57.3646 77.5832L57.3391 63.1641L56.5891 63.1655L56.5637 48.7464L57.3137 48.7451L57.2882 34.326L56.5382 34.3273Z" stroke="#0B0B0B" stroke-width="1.5" stroke-dasharray="16 16"/>
<line x1="140.75" y1="26" x2="140.75" y2="115" stroke="#0B0B0B" stroke-width="1.5"/>
<line x1="160.75" y1="37" x2="160.75" y2="104" stroke="#0B0B0B" stroke-width="1.5"/>
<line x1="180.75" y1="49" x2="180.75" y2="92" stroke="#0B0B0B" stroke-width="1.5"/>
<line x1="200.75" y1="60" x2="200.75" y2="81" stroke="#0B0B0B" stroke-width="1.5"/>
<line x1="220.75" y1="69" x2="220.75" y2="72" stroke="#0B0B0B" stroke-width="1.5"/>
<line x1="120.75" y1="13" x2="120.75" y2="128" stroke="#0B0B0B" stroke-width="1.5"/>
</svg>
