<svg width="29" height="15" viewBox="0 0 29 15" fill="none" xmlns="http://www.w3.org/2000/svg">
<path d="M8.00385 7.76231C7.97555 7.81099 7.93398 7.85199 7.88327 7.88126C7.83256 7.91053 7.77445 7.92705 7.71471 7.92917C7.51302 7.93199 7.18465 7.6954 7.12774 7.65389C7.07083 7.61237 6.57674 7.13374 6.19778 6.98884C5.99373 6.90835 5.7725 6.87195 5.55092 6.88243C5.32935 6.8929 5.11331 6.94998 4.91921 7.0493C4.91921 7.0493 4.0357 7.45901 3.51349 8.90578C2.99128 10.3525 2.9832 11.5244 3.54553 11.9472C4.10786 12.37 4.76657 12.0434 5.20701 11.8731C5.64746 11.7028 6.38684 11.2945 6.63563 11.2723C6.88441 11.2502 7.0449 11.3094 6.95659 11.71C6.72373 12.4566 6.42577 13.1845 6.06566 13.8865C5.67945 14.1544 5.24556 14.3578 4.78357 14.4875C4.12748 14.6641 3.43378 14.6849 2.76668 14.548C2.02642 14.3643 1.36337 13.9784 0.864271 13.4408C0.246122 12.8251 -0.123245 11.5611 0.0376704 10.0628C0.198585 8.56439 1.15318 6.89513 2.24492 5.87883C3.33666 4.86252 4.31631 4.52133 5.27874 4.48425C5.83606 4.48623 6.38549 4.60609 6.88494 4.83465C7.38439 5.06321 7.82059 5.3944 8.16016 5.80285C8.19029 5.84546 8.21242 5.89248 8.22559 5.94191C8.22559 5.94191 8.29275 7.4181 8.00385 7.76231Z" fill="#F5F5F5"/>
<path d="M12.9099 4.76123L10.2061 14.6303H8.5272C8.5272 14.6303 7.75077 14.6581 7.5397 14.4021C7.32864 14.1462 7.37116 13.912 7.49762 13.3562C7.62409 12.8004 9.40592 6.2469 9.40592 6.2469C9.40592 6.2469 9.65274 5.33418 9.88757 5.10081C10.1224 4.86744 10.4178 4.76143 10.9529 4.76143L12.9099 4.76123Z" fill="#F5F5F5"/>
<path d="M12.4221 0.364073C12.4221 0.364073 13.283 0.330813 13.7284 0.770249C13.892 0.927997 13.9921 1.13285 14.0119 1.35059C14.0317 1.56834 13.9702 1.78578 13.8375 1.9666C13.663 2.21152 13.1995 2.89042 11.7661 2.89042C10.3327 2.89042 10.3154 2.03353 10.3154 1.88879C10.3321 1.57203 10.4759 1.27239 10.7188 1.04842C10.9311 0.825926 11.1938 0.649295 11.4881 0.531035C11.7825 0.412775 12.1013 0.355776 12.4221 0.364073Z" fill="#F5F5F5"/>
<path d="M14.9556 4.76153H13.5891L13.0113 6.91466H14.3778L12.241 14.6318H14.4081C14.4081 14.6318 15.335 14.6642 15.6601 13.5294C15.9852 12.3946 17.4659 6.92071 17.4659 6.92071H18.6939C18.8615 6.92426 19.0279 6.89392 19.1815 6.83183C19.2814 6.78292 19.3671 6.71231 19.431 6.62606C19.495 6.53981 19.5354 6.44051 19.5487 6.33668C19.6509 5.96385 19.8552 5.23452 19.8552 5.23452C19.8735 5.17855 19.8765 5.11926 19.8639 5.06197C19.8513 5.00468 19.8235 4.95117 19.783 4.90623C19.6552 4.80701 19.4919 4.75542 19.3252 4.76153H18.1172L19.1047 1.262C19.1648 1.08172 19.1497 0.887179 19.0624 0.716665C18.912 0.488535 18.6405 0.382935 18.1772 0.382935C17.7139 0.4121 17.2597 0.515691 16.8349 0.689056C16.5007 0.808224 16.2031 1.00111 15.968 1.25092L14.9556 4.76153Z" fill="#F5F5F5"/>
<path d="M17.1416 11.7681V13.4621C17.2847 13.455 17.4226 13.4099 17.5389 13.3324C17.8114 13.1877 19.3006 12.076 19.5132 11.9833C19.7258 11.8906 20.2513 11.6206 20.7011 12.0575C21.1509 12.4944 21.608 13.1284 21.8568 13.3844C22.1055 13.6403 22.1417 13.6588 22.2902 13.8146C22.5907 14.1241 22.9806 14.3479 23.414 14.4595C24.446 14.7061 25.5333 14.6711 26.5442 14.3587C27.9489 13.947 28.342 13.758 28.7353 13.2683C29.1287 12.7786 28.9883 11.9039 28.9122 11.7856C28.8674 11.7174 28.8361 11.6423 28.8199 11.5639C28.6703 11.5743 28.5243 11.6122 28.3906 11.6752C28.1739 11.779 27.873 11.9051 27.612 12.0277C27.1892 12.1785 26.7562 12.3036 26.3157 12.4023C26.0725 12.4335 25.8252 12.4247 25.5853 12.3763C25.4095 12.3004 25.2575 12.1843 25.1437 12.039C24.9663 11.7892 24.8068 11.529 24.6662 11.26C24.5094 10.9687 24.3908 10.6612 24.3128 10.3439C24.2685 10.0393 24.137 9.75115 23.9316 9.50938C23.5688 9.2988 23.1756 9.13652 22.7638 9.02732C22.436 8.91651 22.0763 8.91651 21.7484 9.02732C21.6278 9.08294 21.287 9.2087 21.0943 9.31289C20.9015 9.41708 19.7178 10.0918 19.0316 10.511C18.3454 10.9301 17.7072 11.327 17.5066 11.4719C17.3696 11.5532 17.2465 11.653 17.1416 11.7681Z" fill="#F5F5F5"/>
<path d="M24.0221 4.08276C24.0221 4.08276 22.8665 4.45003 22.2584 4.88403C21.6502 5.31802 21.6081 5.34584 21.548 5.76894C21.4878 6.19205 21.6441 6.69277 22.2102 6.8373C22.7532 6.94559 23.3142 6.95128 23.8597 6.85403C24.4334 6.7369 24.9785 6.52176 25.4668 6.21967C25.7166 6.00629 25.9207 5.75145 26.0686 5.4684C26.1227 5.39603 26.1859 5.17349 26.3085 4.94248C26.4571 4.73088 26.5489 4.48957 26.5764 4.23858C26.5734 3.98258 26.5163 3.68767 25.8331 3.6907C25.2095 3.72357 24.5967 3.85622 24.0221 4.08276Z" fill="#F5F5F5"/>
</svg>
