<svg width="15" height="15" viewBox="0 0 15 15" fill="none" xmlns="http://www.w3.org/2000/svg">
<path d="M7.49992 14.0401C7.55023 14.0401 7.60644 14.029 7.66855 14.0068C7.73066 13.9846 7.78374 13.9588 7.82779 13.9296C9.22041 13.0147 10.4564 12.0652 11.5357 11.0811C12.615 10.0971 13.4622 9.08904 14.0773 8.05709C14.6924 7.02514 15 5.98301 15 4.93072C15 4.08488 14.8191 3.33543 14.4573 2.6824C14.0955 2.02935 13.6023 1.51533 12.9779 1.14034C12.3534 0.765369 11.646 0.577881 10.8555 0.577881C10.1634 0.577881 9.50849 0.764798 8.89092 1.13863C8.27335 1.51245 7.80969 2.01551 7.49992 2.64781C7.19069 2.01594 6.72728 1.51298 6.10971 1.13894C5.49214 0.764902 4.83706 0.577881 4.14447 0.577881C3.35401 0.577881 2.6467 0.765369 2.02252 1.14034C1.39833 1.51533 0.905192 2.02935 0.543112 2.6824C0.181037 3.33543 0 4.08488 0 4.93072C0 5.98301 0.307567 7.02514 0.922703 8.05709C1.53783 9.08904 2.38504 10.0971 3.46434 11.0811C4.54364 12.0652 5.7796 13.0147 7.17222 13.9296C7.21669 13.9588 7.26829 13.9846 7.327 14.0068C7.38573 14.029 7.44337 14.0401 7.49992 14.0401Z" fill="white"/>
</svg>
