<svg width="22" height="24" viewBox="0 0 22 24" fill="none" xmlns="http://www.w3.org/2000/svg">
<path d="M3.00011 23.5C2.68453 23.3939 2.36839 23.2883 2.05337 23.1794C2.00677 23.1636 1.96633 23.1316 1.93882 23.1159C5.45171 19.5963 8.95674 16.0845 12.4696 12.5643C13.874 13.8626 15.3003 15.1816 16.7417 16.5135C16.2038 16.8117 15.6889 17.0981 15.1734 17.3828C11.7632 19.2684 8.35592 21.159 4.93905 23.0323C4.56002 23.24 4.12596 23.3461 3.71717 23.4994C3.47796 23.5 3.23875 23.5 3.00011 23.5Z" fill="white"/>
<path d="M3.71717 0.5C4.53026 0.644873 5.2024 1.10308 5.90543 1.49109C9.16788 3.29077 12.427 5.09551 15.6872 6.89912C15.7517 6.93449 15.8141 6.9738 15.8562 6.99851C14.6955 8.16311 13.5371 9.32434 12.3584 10.5069C8.91519 7.32419 5.4416 4.1134 1.95566 0.890818C2.29258 0.650486 2.67835 0.601636 3.04503 0.5C3.26908 0.5 3.49312 0.5 3.71717 0.5Z" fill="white"/>
<path d="M0.846649 22.0468C0.641131 21.7211 0.5395 21.3353 0.500755 20.9305C0.490086 20.8187 0.489527 20.7064 0.489527 20.5941C0.488966 14.8671 0.489526 9.1396 0.488403 3.41263C0.488403 2.87188 0.591165 2.36201 0.89888 1.87236C4.39549 5.10393 7.87973 8.32371 11.3483 11.5294C7.84099 15.0418 4.3455 18.5423 0.846649 22.0468Z" fill="white"/>
<path d="M13.4579 11.5215C13.5169 11.4581 13.5601 11.4081 13.6067 11.3609C14.7584 10.207 15.9123 9.05474 17.0606 7.89744C17.1707 7.78682 17.2493 7.75538 17.3998 7.84017C18.4274 8.4191 19.4645 8.98175 20.4938 9.55787C21.5169 10.1306 22.0638 10.9971 21.9942 12.1841C21.9352 13.1898 21.4012 13.9215 20.5382 14.4117C19.7655 14.8508 18.9827 15.2708 18.2073 15.7043C18.109 15.7593 18.0461 15.7666 17.9563 15.6835C16.4654 14.3005 14.9712 12.9208 13.4579 11.5215Z" fill="white"/>
</svg>
