<svg width="265" height="142" viewBox="0 0 265 142" fill="none" xmlns="http://www.w3.org/2000/svg">
<path d="M150.25 71.5359C150.25 102.894 124.842 128.315 93.5 128.315C62.1582 128.315 36.75 102.894 36.75 71.5359C36.75 40.1774 62.1582 14.757 93.5 14.757C124.842 14.757 150.25 40.1774 150.25 71.5359Z" stroke="#0B0B0B" stroke-width="1.5"/>
<path d="M225.639 49.5192C227.532 54.087 228.853 58.9516 229.514 64.0239L228.771 64.1208C229.087 66.5474 229.25 69.0224 229.25 71.5359C229.25 74.0494 229.087 76.5243 228.771 78.9509L229.514 79.0478C228.853 84.1201 227.532 88.9847 225.639 93.5525L224.946 93.2654C223.034 97.8806 220.53 102.189 217.53 106.096L218.125 106.553C215.064 110.539 211.494 114.112 207.511 117.175L207.053 116.58C203.148 119.584 198.841 122.09 194.228 124.005L194.515 124.697C189.948 126.593 185.084 127.916 180.012 128.578L179.915 127.835C177.488 128.151 175.013 128.315 172.5 128.315C169.987 128.315 167.512 128.151 165.085 127.835L164.988 128.578C159.916 127.916 155.052 126.593 150.485 124.697L150.772 124.005C146.159 122.09 141.852 119.584 137.947 116.58L137.489 117.175C133.506 114.112 129.936 110.539 126.875 106.553L127.47 106.096C124.47 102.189 121.966 97.8806 120.054 93.2654L119.361 93.5525C117.468 88.9847 116.147 84.1201 115.486 79.0478L116.229 78.9509C115.913 76.5243 115.75 74.0494 115.75 71.5359C115.75 69.0224 115.913 66.5474 116.229 64.1208L115.486 64.0239C116.147 58.9516 117.468 54.087 119.361 49.5192L120.054 49.8063C121.966 45.1911 124.47 40.8827 127.47 36.9755L126.875 36.5187C129.936 32.533 133.506 28.9598 137.489 25.8968L137.947 26.4913C141.852 23.4878 146.159 20.9816 150.772 19.067L150.485 18.3743C155.052 16.479 159.916 15.1556 164.988 14.4935L165.085 15.2372C167.512 14.9205 169.987 14.757 172.5 14.757C175.013 14.757 177.488 14.9205 179.915 15.2372L180.012 14.4935C185.084 15.1556 189.948 16.479 194.515 18.3743L194.228 19.067C198.841 20.9816 203.148 23.4878 207.053 26.4913L207.511 25.8968C211.494 28.9598 215.064 32.533 218.125 36.5187L217.53 36.9755C220.53 40.8827 223.034 45.1911 224.946 49.8063L225.639 49.5192Z" stroke="#0B0B0B" stroke-width="1.5" stroke-dasharray="16 16"/>
</svg>
