<svg width="265" height="142" viewBox="0 0 265 142" fill="none" xmlns="http://www.w3.org/2000/svg">
<path d="M135.639 49.5192C137.532 54.087 138.853 58.9516 139.514 64.0239L138.771 64.1208C139.087 66.5474 139.25 69.0224 139.25 71.5359C139.25 74.0494 139.087 76.5243 138.771 78.9509L139.514 79.0478C138.853 84.1201 137.532 88.9847 135.639 93.5525L134.946 93.2654C133.034 97.8806 130.53 102.189 127.53 106.096L128.125 106.553C125.064 110.539 121.494 114.112 117.511 117.175L117.053 116.58C113.148 119.584 108.841 122.09 104.228 124.005L104.515 124.697C99.9479 126.593 95.0838 127.916 90.0119 128.578L89.9148 127.835C87.4884 128.151 85.0135 128.315 82.5 128.315C79.9866 128.315 77.5116 128.151 75.0852 127.835L74.9881 128.578C69.9162 127.916 65.0521 126.593 60.485 124.697L60.7725 124.005C56.1589 122.09 51.852 119.584 47.9466 116.58L47.4894 117.175C43.5064 114.112 39.9359 110.539 36.8753 106.553L37.4701 106.096C34.4699 102.189 31.9665 97.8806 30.0541 93.2654L29.3612 93.5525C27.4684 88.9847 26.1469 84.1201 25.4858 79.0478L26.2295 78.9509C25.9132 76.5243 25.75 74.0494 25.75 71.5359C25.75 69.0224 25.9132 66.5474 26.2295 64.1208L25.4858 64.0239C26.1469 58.9516 27.4684 54.087 29.3612 49.5192L30.0541 49.8063C31.9665 45.1911 34.4699 40.8827 37.4701 36.9755L36.8753 36.5187C39.9359 32.533 43.5064 28.9598 47.4894 25.8968L47.9466 26.4913C51.852 23.4878 56.1589 20.9816 60.7725 19.067L60.485 18.3743C65.0521 16.479 69.9162 15.1556 74.9881 14.4935L75.0852 15.2372C77.5116 14.9205 79.9865 14.757 82.5 14.757C85.0134 14.757 87.4884 14.9205 89.9148 15.2372L90.0119 14.4935C95.0838 15.1556 99.9479 16.479 104.515 18.3743L104.228 19.067C108.841 20.9816 113.148 23.4878 117.053 26.4913L117.511 25.8968C121.494 28.9598 125.064 32.533 128.125 36.5187L127.53 36.9755C130.53 40.8827 133.034 45.1911 134.946 49.8063L135.639 49.5192Z" stroke="#0B0B0B" stroke-width="1.5" stroke-dasharray="16 16"/>
<line x1="165" y1="18.5095" x2="205" y2="18.5095" stroke="#0B0B0B"/>
<line x1="140" y1="104.553" x2="231" y2="104.553" stroke="#0B0B0B"/>
<line x1="130" y1="84.5426" x2="240" y2="84.5426" stroke="#0B0B0B"/>
<line x1="130" y1="57.5291" x2="240" y2="57.5291" stroke="#0B0B0B"/>
<line x1="140" y1="37.5191" x2="231" y2="37.5191" stroke="#0B0B0B"/>
<line x1="165" y1="124.563" x2="205" y2="124.563" stroke="#0B0B0B"/>
</svg>
