<svg width="265" height="142" viewBox="0 0 265 142" fill="none" xmlns="http://www.w3.org/2000/svg">
<path d="M55.7477 127.805L55.5488 15.053L153.095 71.6012L55.7477 127.805Z" stroke="#0B0B0B" stroke-width="1.5"/>
<path d="M125.131 35.4299L125.106 21.0108L125.856 21.0095L125.845 15.1043L130.954 18.0659L131.33 17.4171L143.805 24.6486L143.429 25.2975L155.903 32.529L156.279 31.8802L168.754 39.1118L168.378 39.7606L180.852 46.9922L181.228 46.3433L193.703 53.5749L193.327 54.2238L205.801 61.4553L206.177 60.8065L218.652 68.038L218.276 68.6869L223.392 71.6525L218.29 74.598L218.665 75.2476L206.216 82.4351L205.841 81.7855L193.392 88.973L193.767 89.6226L181.317 96.8101L180.942 96.1605L168.493 103.348L168.868 103.998L156.419 111.185L156.044 110.536L143.595 117.723L143.97 118.373L131.521 125.56L131.146 124.911L126.044 127.856L126.034 121.943L125.284 121.944L125.258 107.525L126.008 107.524L125.983 93.1048L125.233 93.1061L125.207 78.6871L125.957 78.6857L125.932 64.2667L125.182 64.268L125.156 49.8489L125.906 49.8476L125.881 35.4285L125.131 35.4299Z" stroke="#0B0B0B" stroke-width="1.5" stroke-dasharray="16 16"/>
</svg>
