<svg width="24" height="20" viewBox="0 0 24 20" fill="none" xmlns="http://www.w3.org/2000/svg">
<path d="M7.54779 19.7527C16.6048 19.7527 21.5578 12.2491 21.5578 5.74267C21.5578 5.52948 21.5534 5.31739 21.5436 5.10611C22.505 4.41114 23.3408 3.54365 24 2.55661C23.1178 2.94859 22.1684 3.21255 21.1723 3.33156C22.1889 2.72203 22.9696 1.75736 23.3378 0.60763C22.3862 1.17185 21.3326 1.58185 20.2112 1.80295C19.3124 0.845929 18.0327 0.247314 16.6168 0.247314C13.8973 0.247314 11.692 2.45261 11.692 5.1708C11.692 5.55732 11.7354 5.93293 11.8194 6.29351C7.7274 6.08797 4.09859 4.12835 1.67028 1.14919C1.24691 1.87665 1.00315 2.7223 1.00315 3.62391C1.00315 5.33213 1.87255 6.84026 3.19452 7.72276C2.38682 7.69792 1.62797 7.47573 0.964389 7.10668C0.963297 7.12715 0.963297 7.1479 0.963297 7.16946C0.963297 9.55437 2.66087 11.5454 4.91366 11.9966C4.50012 12.1093 4.06501 12.1699 3.61571 12.1699C3.29852 12.1699 2.99007 12.1383 2.69008 12.0812C3.31681 14.0373 5.13477 15.4611 7.29011 15.5012C5.60454 16.8221 3.48141 17.6091 1.17457 17.6091C0.777407 17.6091 0.385428 17.5864 0 17.5408C2.17909 18.9373 4.76653 19.7527 7.54779 19.7527Z" fill="white"/>
</svg>
